# File created by Blade
# Date/Time:  Tue Apr 07 20:57:09 2015
# Frame Rate: 120.000 fps
#------------------------------------------------------
:FULLY-SPECIFIED
:DEGREES
856
root 38.109337 31.374278 11.433073 383.800153 -63.974674 -721.345228
Spine -15.113140 -25.636716 -9.677211
Head 14.284514 -9.853524 8.698259
LeftShoulder -15.515897 28.727867 32.601890
LeftArm 88.651147 -58.272076 -65.136475
LeftForeArm 11.234957 -0.000000 5.361929
LeftHand 10.654851 0.000000 18.340987
LeftHandThumb1 -26.253704 0.000000 33.147579
RightShoulder -16.379495 18.539137 -47.822192
RightArm 24.431323 29.126577 22.937872
RightForeArm -26.438657 0.000000 18.216502
RightHand 8.025853 -0.000000 -14.022166
RightHandThumb1 -24.326973 -0.000000 -32.862282
LeftUpLeg -2.331484 7.831599 3.671340
LeftLeg -3.725318 -0.000000 0.000000
LeftFoot -10.833389 6.727937 -34.601858
LeftToeBase -11.887446 -0.000000 0.000000
RightUpLeg -53.568231 -11.568927 11.211263
RightLeg 21.694755 -0.000000 -0.000000
RightFoot 15.878200 -9.181556 -5.104668
RightToeBase -8.223202 -0.000000 0.000000
857
root 38.041080 31.354015 11.478451 383.467773 -64.101598 -721.057923
Spine -15.110408 -25.595652 -9.575678
Head 14.357725 -9.837463 8.482981
LeftShoulder -15.552118 28.750052 32.608171
LeftArm 88.762190 -58.518536 -65.270748
LeftForeArm 11.116380 -0.000000 5.563219
LeftHand 10.810987 -0.000000 18.730962
LeftHandThumb1 -26.253704 0.000000 33.147579
RightShoulder -16.309155 18.548254 -47.776466
RightArm 24.619753 29.020531 23.181298
RightForeArm -26.420276 0.000000 18.083342
RightHand 7.746492 -0.000000 -13.798606
RightHandThumb1 -24.326973 -0.000000 -32.862282
LeftUpLeg -2.076805 7.752832 3.575327
LeftLeg -3.714030 -0.000000 0.000000
LeftFoot -10.647421 6.644954 -34.366736
LeftToeBase -12.456402 -0.000000 0.000000
RightUpLeg -53.869149 -11.776249 11.286571
RightLeg 22.696122 -0.000000 -0.000000
RightFoot 15.138757 -9.246438 -4.993227
RightToeBase -8.288060 -0.000000 0.000000
858
root 37.969744 31.331809 11.525409 383.122265 -64.228575 -720.760143
Spine -15.104799 -25.578997 -9.453722
Head 14.423015 -9.699753 8.270667
LeftShoulder -15.606598 28.748429 32.596809
LeftArm 88.826329 -58.826993 -65.368776
LeftForeArm 11.096845 -0.000000 5.733573
LeftHand 10.837157 0.000000 19.200339
LeftHandThumb1 -26.253704 0.000000 33.147579
RightShoulder -16.240596 18.624485 -47.725476
RightArm 24.805473 28.891242 23.387222
RightForeArm -26.437677 -0.000000 17.984452
RightHand 7.373498 0.000000 -13.077367
RightHandThumb1 -24.326973 -0.000000 -32.862282
LeftUpLeg -1.768441 7.745800 3.467663
LeftLeg -3.783447 -0.000000 0.000000
LeftFoot -10.285170 6.533142 -33.985740
LeftToeBase -13.443629 -0.000000 0.000000
RightUpLeg -54.153554 -11.989830 11.346470
RightLeg 23.664726 -0.000000 -0.000000
RightFoot 14.359856 -9.285497 -4.746101
RightToeBase -8.215333 -0.000000 0.000000
859
root 37.892918 31.308291 11.575917 382.786392 -64.375959 -720.499571
Spine -15.075672 -25.533302 -9.311979
Head 14.482492 -9.554792 8.056708
LeftShoulder -15.671151 28.699227 32.599860
LeftArm 88.783401 -59.157132 -65.433326
LeftForeArm 11.098098 -0.000000 5.955231
LeftHand 10.784241 -0.000000 19.405755
LeftHandThumb1 -26.253704 0.000000 33.147579
RightShoulder -16.176828 18.699556 -47.666101
RightArm 24.990249 28.782069 23.579223
RightForeArm -26.718842 -0.000000 17.994978
RightHand 6.355331 -0.000000 -11.476692
RightHandThumb1 -24.326973 -0.000000 -32.862282
LeftUpLeg -1.392762 7.783404 3.367978
LeftLeg -3.898436 -0.000000 0.000000
LeftFoot -9.861811 6.460941 -33.117085
LeftToeBase -14.452607 -0.000000 0.000000
RightUpLeg -54.385425 -12.197171 11.406626
RightLeg 24.585940 -0.000000 -0.000000
RightFoot 13.570439 -9.300129 -4.428724
RightToeBase -8.141973 -0.000000 0.000000
860
root 37.810775 31.283834 11.624562 382.534589 -64.518923 -720.335091
Spine -15.050517 -25.462382 -9.125507
Head 14.558583 -9.392219 7.847855
LeftShoulder -15.714968 28.681540 32.617733
LeftArm 88.773655 -59.543688 -65.567352
LeftForeArm 11.204128 -0.000000 6.159944
LeftHand 10.799877 -0.000000 19.785717
LeftHandThumb1 -26.253704 0.000000 33.147579
RightShoulder -16.109802 18.716138 -47.580387
RightArm 25.159789 28.730268 23.735195
RightForeArm -26.836511 -0.000000 18.115886
RightHand 5.252147 -0.000000 -9.909402
RightHandThumb1 -24.326973 -0.000000 -32.862282
LeftUpLeg -0.971952 7.986575 3.322259
LeftLeg -4.110914 -0.000000 0.000000
LeftFoot -9.515318 6.184302 -32.808907
LeftToeBase -14.616186 -0.000000 0.000000
RightUpLeg -54.590278 -12.402522 11.501603
RightLeg 25.488741 -0.000000 -0.000000
RightFoot 12.772589 -9.240458 -4.126897
RightToeBase -8.090101 -0.000000 0.000000
861
root 37.722716 31.258286 11.672881 382.350576 -64.659068 -720.265543
Spine -15.014545 -25.400596 -8.874026
Head 14.629984 -9.201482 7.594707
LeftShoulder -15.780703 28.635812 32.616090
LeftArm 88.810978 -59.946598 -65.811306
LeftForeArm 11.054476 -0.000000 6.356830
LeftHand 10.834073 -0.000000 19.931500
LeftHandThumb1 -26.253704 0.000000 33.147579
RightShoulder -16.026708 18.813851 -47.499872
RightArm 25.278649 28.604706 23.822393
RightForeArm -27.128879 -0.000000 18.338137
RightHand 3.679717 0.000000 -7.067409
RightHandThumb1 -24.326973 -0.000000 -32.862282
LeftUpLeg -0.483315 8.035541 3.334277
LeftLeg -4.418273 -0.000000 0.000000
LeftFoot -9.269632 6.070707 -32.637755
LeftToeBase -14.758043 -0.000000 0.000000
RightUpLeg -54.741667 -12.591403 11.619165
RightLeg 26.361563 -0.000000 -0.000000
RightFoot 11.968903 -9.194477 -3.918538
RightToeBase -7.922382 -0.000000 0.000000
862
root 37.631645 31.231073 11.719298 382.254130 -64.812641 -720.269878
Spine -15.005668 -25.287016 -8.587855
Head 14.701886 -9.041790 7.342113
LeftShoulder -15.814287 28.618911 32.635676
LeftArm 88.886655 -60.394146 -66.158332
LeftForeArm 11.025982 0.000000 6.553627
LeftHand 10.922867 -0.000000 20.149907
LeftHandThumb1 -26.253704 0.000000 33.147579
RightShoulder -15.972122 18.919643 -47.476370
RightArm 25.354645 28.526439 24.001375
RightForeArm -27.257058 -0.000000 18.623872
RightHand 2.166412 -0.000000 -4.509916
RightHandThumb1 -24.326973 -0.000000 -32.862282
LeftUpLeg -0.011285 8.096581 3.374898
LeftLeg -4.706666 -0.000000 0.000000
LeftFoot -9.074899 5.933269 -32.529870
LeftToeBase -14.852146 -0.000000 0.000000
RightUpLeg -54.891529 -12.739758 11.752172
RightLeg 27.221479 -0.000000 -0.000000
RightFoot 11.135670 -9.221387 -3.763128
RightToeBase -7.592961 -0.000000 0.000000
863
root 37.539232 31.202240 11.765402 382.211780 -64.936725 -720.282052
Spine -15.050275 -25.229466 -8.243536
Head 14.782381 -8.829381 7.065209
LeftShoulder -15.870904 28.633820 32.650075
LeftArm 89.096259 -60.846829 -66.710591
LeftForeArm 10.961977 -0.000000 6.730648
LeftHand 10.951011 -0.000000 20.442960
LeftHandThumb1 -26.253704 0.000000 33.147579
RightShoulder -15.861326 19.003945 -47.415756
RightArm 25.391598 28.484681 24.112169
RightForeArm -27.305472 0.000000 18.889163
RightHand 0.614762 -0.000000 -1.601509
RightHandThumb1 -24.326973 -0.000000 -32.862282
LeftUpLeg 0.372544 8.227804 3.417770
LeftLeg -4.922211 -0.000000 0.000000
LeftFoot -8.875652 5.700094 -32.455875
LeftToeBase -14.967007 -0.000000 0.000000
RightUpLeg -55.071918 -12.846775 11.856876
RightLeg 28.071247 -0.000000 -0.000000
RightFoot 10.313944 -9.310307 -3.643168
RightToeBase -7.265305 -0.000000 0.000000
864
root 37.443896 31.172566 11.808846 382.196882 -65.039502 -720.279466
Spine -15.117532 -25.149364 -7.911869
Head 14.822624 -8.659056 6.846622
LeftShoulder -15.887404 28.595629 32.729871
LeftArm 89.092783 -61.267937 -67.084727
LeftForeArm 10.729001 -0.000000 6.892379
LeftHand 10.976651 -0.000000 20.849209
LeftHandThumb1 -26.253704 0.000000 33.147579
RightShoulder -15.811255 19.005506 -47.333157
RightArm 25.461142 28.500457 24.262266
RightForeArm -27.122554 0.000000 19.101647
RightHand -0.668627 -0.000000 0.717856
RightHandThumb1 -24.326973 -0.000000 -32.862282
LeftUpLeg 0.679127 8.369111 3.457658
LeftLeg -5.063250 -0.000000 0.000000
LeftFoot -8.746680 5.459975 -32.364025
LeftToeBase -15.005540 -0.000000 0.000000
RightUpLeg -55.293087 -12.951283 11.982315
RightLeg 28.927604 -0.000000 -0.000000
RightFoot 9.492941 -9.436094 -3.607990
RightToeBase -7.069091 -0.000000 0.000000
865
root 37.344287 31.142125 11.851206 382.160931 -65.135182 -720.230297
Spine -15.204117 -25.080692 -7.588129
Head 14.853676 -8.486610 6.638618
LeftShoulder -15.911532 28.570201 32.798568
LeftArm 89.259037 -61.691180 -67.661011
LeftForeArm 10.614002 -0.000000 6.991617
LeftHand 11.053138 -0.000000 21.347719
LeftHandThumb1 -26.253704 0.000000 33.147579
RightShoulder -15.809500 19.065595 -47.278721
RightArm 25.579925 28.530766 24.527872
RightForeArm -26.786781 -0.000000 19.235857
RightHand -1.743259 0.000000 2.655055
RightHandThumb1 -24.326973 -0.000000 -32.862282
LeftUpLeg 0.946457 8.515579 3.469327
LeftLeg -5.179138 -0.000000 0.000000
LeftFoot -8.613699 5.237494 -32.325342
LeftToeBase -15.179114 -0.000000 0.000000
RightUpLeg -55.517421 -12.984176 12.023862
RightLeg 29.804269 -0.000000 -0.000000
RightFoot 8.646188 -9.622882 -3.525383
RightToeBase -6.751407 -0.000000 0.000000
866
root 37.242149 31.110706 11.893305 382.063587 -65.204814 -720.078249
Spine -15.308352 -25.039013 -7.302424
Head 14.854404 -8.342553 6.478588
LeftShoulder -15.944447 28.601600 32.865503
LeftArm 89.279024 -62.120154 -68.058683
LeftForeArm 10.253466 -0.000000 7.037376
LeftHand 11.113563 -0.000000 21.697807
LeftHandThumb1 -26.253704 0.000000 33.147579
RightShoulder -15.748054 19.085009 -47.168229
RightArm 25.583242 28.621442 24.751186
RightForeArm -26.429270 0.000000 19.399754
RightHand -2.700083 0.000000 4.585787
RightHandThumb1 -24.326973 -0.000000 -32.862282
LeftUpLeg 1.185273 8.563174 3.447276
LeftLeg -5.296963 -0.000000 0.000000
LeftFoot -8.500252 5.092597 -32.230503
LeftToeBase -15.229857 -0.000000 0.000000
RightUpLeg -55.764312 -13.001076 12.013685
RightLeg 30.694520 -0.000000 -0.000000
RightFoot 7.778281 -9.856522 -3.443826
RightToeBase -6.710293 -0.000000 0.000000
